<svg xmlns="http://www.w3.org/2000/svg" xmlns:xlink="http://www.w3.org/1999/xlink" viewBox="0 0 1000 1000"><defs><style>.cls-1,.cls-2,.cls-3{stroke:#000;}.cls-1,.cls-2,.cls-3,.cls-4,.cls-5,.cls-6{stroke-linecap:round;stroke-linejoin:round;}.cls-1{stroke-width:23px;fill:url(#Orange_Yellow);}.cls-2,.cls-3{fill:none;}.cls-2{stroke-width:29px;}.cls-3{stroke-width:15px;}.cls-4{fill:#ffffc3;stroke-width:19px;}.cls-4,.cls-5,.cls-6{stroke:#231f20;}.cls-5,.cls-6{fill:#fff;}.cls-5{stroke-width:10px;}.cls-6{stroke-width:13px;}</style><linearGradient id="Orange_Yellow" x1="500" y1="295.78" x2="500" y2="622.99" gradientUnits="userSpaceOnUse"><stop offset="0" stop-color="#fff33b"/><stop offset="0.04" stop-color="#fee72e"/><stop offset="0.12" stop-color="#fed51b"/><stop offset="0.2" stop-color="#fdca10"/><stop offset="0.28" stop-color="#fdc70c"/><stop offset="0.67" stop-color="#f3903f"/><stop offset="0.89" stop-color="#ed683c"/><stop offset="1" stop-color="#e93e3a"/></linearGradient></defs><g id="Layer_3" data-name="Layer 3"><path class="cls-1" d="M665.52,598.34q0,7.47-.66,14.77H636.11L601.89,604H576.22L542,607.76l-51.87,5.35L452.69,604H412.05l-50.8,9.09-26.16-.45q-.61-7.08-.61-14.32a165.52,165.52,0,1,1,331,0Z"/></g><g id="Layer_2" data-name="Layer 2"><path class="cls-2" d="M125,603.76c37.5,0,37.5,8,75,8s37.5-8,75-8,37.5,8,75,8,37.5-8,75-8,37.5,8,75,8,37.5-8,75-8,37.5,8,75,8,37.5-8,75-8,37.5,8,75,8,37.51-8,75-8"/><path class="cls-3" d="M379.09,661c23.6,3.37,42.54,3.69,66.09.87,18.07-2.16,34.25,2.59,52.14,2.91,18.78.33,37.09-5.15,56-3.75,25.39,1.88,45.85,3.51,71.41-.07"/><path class="cls-3" d="M408.49,707.36c16.06.21,31.18-4.12,47.1-4.59,14.12-.42,27.78,3.79,41.86,3.94,15.07.15,29.9-3.54,45-3.8,18.51-.31,36.58,4.2,55.17,4"/><path class="cls-3" d="M471.18,745.78c20.33,3.63,38.2,2.53,58.7,0"/></g><g id="Layer_4" data-name="Layer 4"><path class="cls-4" d="M756.43,367.4a79.72,79.72,0,0,1-11.74.86A81.05,81.05,0,1,1,756.43,207a92.59,92.59,0,0,0,0,160.39Z"/><polygon class="cls-5" points="259.3 198.55 267.98 227.05 297.07 235.73 267.98 244.41 259.3 273.69 250.62 244.41 221.74 235.73 250.62 227.05 259.3 198.55"/><polygon class="cls-6" points="360.26 287.21 373.55 330.82 418.07 344.1 373.55 357.38 360.26 402.18 346.99 357.38 302.79 344.1 346.99 330.82 360.26 287.21"/></g></svg>